<svg xmlns="http://www.w3.org/2000/svg" xmlns:xlink="http://www.w3.org/1999/xlink" width="500" zoomAndPan="magnify" viewBox="0 0 375 374.999991" height="500" preserveAspectRatio="xMidYMid meet" version="1.0"><defs><clipPath id="0b1da4ed59"><path d="M 97.851562 71.265625 L 276 71.265625 L 276 261.765625 L 97.851562 261.765625 Z M 97.851562 71.265625 " clip-rule="nonzero"/></clipPath><clipPath id="12f52e885a"><path d="M 32.085938 115 L 68 115 L 68 218 L 32.085938 218 Z M 32.085938 115 " clip-rule="nonzero"/></clipPath><clipPath id="d0d65394d4"><path d="M 310 115 L 345.875 115 L 345.875 218 L 310 218 Z M 310 115 " clip-rule="nonzero"/></clipPath></defs><g clip-path="url(#0b1da4ed59)"><path fill="#f6cf94" d="M 231.597656 221.894531 C 232.671875 221.109375 233.722656 220.296875 234.753906 219.460938 C 235.785156 218.621094 236.796875 217.757812 237.78125 216.863281 C 238.769531 215.972656 239.730469 215.054688 240.667969 214.113281 C 241.605469 213.171875 242.519531 212.207031 243.40625 211.21875 C 244.296875 210.226562 245.15625 209.214844 245.992188 208.179688 C 246.828125 207.144531 247.632812 206.089844 248.414062 205.011719 C 249.195312 203.9375 249.945312 202.839844 250.667969 201.722656 C 251.390625 200.609375 252.082031 199.472656 252.746094 198.320312 C 253.40625 197.167969 254.039062 196 254.640625 194.8125 C 255.242188 193.628906 255.8125 192.429688 256.351562 191.210938 C 256.890625 189.996094 257.398438 188.769531 257.871094 187.527344 C 258.347656 186.285156 258.789062 185.03125 259.199219 183.765625 C 259.605469 182.5 259.980469 181.226562 260.324219 179.941406 C 260.667969 178.65625 260.976562 177.363281 261.25 176.0625 C 261.523438 174.761719 261.765625 173.457031 261.972656 172.140625 C 262.175781 170.828125 262.347656 169.511719 262.488281 168.1875 C 262.625 166.867188 262.726562 165.539062 262.792969 164.210938 C 262.863281 162.886719 262.894531 161.554688 262.894531 160.226562 C 262.890625 158.898438 262.855469 157.570312 262.785156 156.242188 C 262.714844 154.914062 262.609375 153.589844 262.46875 152.265625 C 262.328125 150.945312 262.152344 149.628906 261.941406 148.3125 C 261.734375 147 261.488281 145.695312 261.210938 144.394531 C 260.933594 143.09375 260.621094 141.800781 260.277344 140.519531 C 259.929688 139.234375 259.550781 137.960938 259.140625 136.695312 C 258.726562 135.433594 258.285156 134.179688 257.804688 132.941406 C 257.328125 131.699219 256.820312 130.472656 256.277344 129.257812 C 255.734375 128.042969 255.160156 126.84375 254.558594 125.660156 C 253.953125 124.476562 253.316406 123.308594 252.652344 122.15625 C 251.984375 121.007812 251.289062 119.875 250.566406 118.761719 C 249.839844 117.644531 249.085938 116.550781 248.304688 115.476562 C 247.523438 114.402344 246.710938 113.347656 245.875 112.3125 C 245.039062 111.28125 244.175781 110.273438 243.285156 109.285156 C 242.394531 108.296875 241.476562 107.332031 240.539062 106.394531 C 239.597656 105.453125 238.632812 104.539062 237.644531 103.652344 C 236.65625 102.761719 235.644531 101.898438 234.609375 101.0625 C 233.578125 100.226562 232.523438 99.417969 231.445312 98.636719 C 230.371094 97.855469 229.273438 97.105469 228.160156 96.378906 C 227.042969 95.65625 225.910156 94.964844 224.757812 94.296875 C 223.605469 93.632812 222.4375 93 221.253906 92.398438 C 220.070312 91.792969 218.867188 91.222656 217.65625 90.683594 C 216.441406 90.140625 215.210938 89.632812 213.96875 89.15625 C 212.730469 88.679688 211.476562 88.238281 210.210938 87.828125 C 208.945312 87.417969 207.671875 87.039062 206.386719 86.695312 C 205.105469 86.351562 203.8125 86.042969 202.511719 85.765625 C 201.210938 85.488281 199.902344 85.246094 198.589844 85.039062 C 197.277344 84.832031 195.960938 84.660156 194.636719 84.519531 C 193.316406 84.382812 191.992188 84.277344 190.664062 84.207031 C 189.335938 84.136719 188.007812 84.101562 186.675781 84.101562 C 185.347656 84.101562 184.019531 84.136719 182.691406 84.207031 C 181.363281 84.277344 180.039062 84.382812 178.714844 84.519531 C 177.394531 84.660156 176.078125 84.832031 174.761719 85.039062 C 173.449219 85.246094 172.144531 85.488281 170.84375 85.765625 C 169.542969 86.042969 168.25 86.351562 166.964844 86.695312 C 165.679688 87.039062 164.40625 87.417969 163.140625 87.828125 C 161.878906 88.238281 160.625 88.679688 159.382812 89.15625 C 158.140625 89.632812 156.914062 90.140625 155.699219 90.683594 C 154.484375 91.222656 153.285156 91.792969 152.101562 92.398438 C 150.914062 93 149.746094 93.632812 148.59375 94.296875 C 147.445312 94.964844 146.308594 95.65625 145.195312 96.378906 C 144.078125 97.105469 142.984375 97.855469 141.90625 98.636719 C 140.832031 99.417969 139.777344 100.226562 138.742188 101.0625 C 137.710938 101.898438 136.699219 102.761719 135.710938 103.652344 C 134.722656 104.539062 133.757812 105.453125 132.816406 106.394531 C 131.875 107.332031 130.960938 108.296875 130.070312 109.285156 C 129.179688 110.273438 128.316406 111.28125 127.476562 112.3125 C 126.640625 113.347656 125.832031 114.402344 125.050781 115.476562 C 124.265625 116.550781 123.511719 117.644531 122.789062 118.761719 C 122.0625 119.875 121.367188 121.007812 120.703125 122.15625 C 120.035156 123.308594 119.402344 124.476562 118.796875 125.660156 C 118.191406 126.84375 117.617188 128.042969 117.078125 129.257812 C 116.535156 130.472656 116.027344 131.699219 115.546875 132.941406 C 115.070312 134.179688 114.625 135.433594 114.214844 136.695312 C 113.800781 137.960938 113.421875 139.234375 113.078125 140.519531 C 112.730469 141.800781 112.421875 143.09375 112.140625 144.394531 C 111.863281 145.695312 111.621094 147 111.410156 148.3125 C 111.203125 149.628906 111.027344 150.945312 110.886719 152.265625 C 110.746094 153.589844 110.640625 154.914062 110.570312 156.242188 C 110.5 157.570312 110.460938 158.898438 110.460938 160.226562 C 110.457031 161.554688 110.492188 162.886719 110.558594 164.210938 C 110.628906 165.539062 110.730469 166.867188 110.867188 168.1875 C 111.003906 169.511719 111.175781 170.828125 111.382812 172.140625 C 111.589844 173.457031 111.828125 174.761719 112.105469 176.0625 C 112.378906 177.363281 112.6875 178.65625 113.027344 179.941406 C 113.371094 181.226562 113.746094 182.5 114.15625 183.765625 C 114.566406 185.03125 115.007812 186.285156 115.480469 187.527344 C 115.957031 188.769531 116.460938 189.996094 117 191.210938 C 117.539062 192.429688 118.109375 193.628906 118.710938 194.8125 C 119.3125 196 119.945312 197.167969 120.609375 198.320312 C 121.273438 199.472656 121.964844 200.609375 122.6875 201.722656 C 123.410156 202.839844 124.160156 203.9375 124.941406 205.011719 C 125.71875 206.089844 126.527344 207.144531 127.363281 208.179688 C 128.195312 209.214844 129.058594 210.226562 129.945312 211.21875 C 130.832031 212.207031 131.746094 213.171875 132.683594 214.113281 C 133.625 215.054688 134.585938 215.972656 135.570312 216.863281 C 136.558594 217.757812 137.566406 218.621094 138.597656 219.460938 C 139.628906 220.296875 140.683594 221.109375 141.757812 221.894531 C 147.796875 217.347656 153.542969 219.945312 160.167969 222.945312 C 165.511719 225.363281 171.550781 228.09375 179.339844 228.222656 C 179.375 227.765625 179.457031 227.316406 179.578125 226.875 C 179.699219 226.433594 179.859375 226.007812 180.0625 225.59375 C 180.261719 225.183594 180.5 224.792969 180.773438 224.425781 C 181.046875 224.058594 181.351562 223.722656 181.6875 223.410156 C 182.023438 223.101562 182.386719 222.824219 182.777344 222.582031 C 183.164062 222.339844 183.570312 222.136719 184 221.96875 C 184.425781 221.800781 184.863281 221.675781 185.3125 221.59375 C 185.761719 221.507812 186.21875 221.464844 186.675781 221.464844 C 187.132812 221.464844 187.585938 221.507812 188.035156 221.59375 C 188.488281 221.675781 188.925781 221.800781 189.351562 221.96875 C 189.777344 222.136719 190.183594 222.339844 190.574219 222.582031 C 190.960938 222.824219 191.324219 223.101562 191.660156 223.410156 C 191.996094 223.722656 192.304688 224.058594 192.578125 224.425781 C 192.851562 224.792969 193.085938 225.183594 193.289062 225.59375 C 193.488281 226.007812 193.652344 226.433594 193.773438 226.875 C 193.894531 227.316406 193.972656 227.765625 194.011719 228.222656 C 201.800781 228.09375 207.835938 225.363281 213.179688 222.945312 C 219.808594 219.941406 225.554688 217.34375 231.597656 221.894531 Z M 251.257812 220.585938 C 251.003906 220.585938 250.824219 220.46875 250.722656 220.234375 C 250.617188 220 250.65625 219.789062 250.828125 219.601562 C 253.328125 216.90625 255.648438 214.066406 257.792969 211.078125 C 259.933594 208.09375 261.882812 204.984375 263.632812 201.753906 C 265.382812 198.523438 266.925781 195.195312 268.261719 191.773438 C 269.59375 188.347656 270.707031 184.851562 271.601562 181.289062 C 272.496094 177.722656 273.164062 174.117188 273.605469 170.46875 C 274.042969 166.820312 274.253906 163.160156 274.234375 159.484375 C 274.21875 155.808594 273.96875 152.148438 273.488281 148.507812 C 273.007812 144.863281 272.304688 141.265625 271.371094 137.707031 C 271.332031 137.550781 271.351562 137.402344 271.433594 137.265625 C 271.515625 137.125 271.632812 137.03125 271.789062 136.992188 C 271.945312 136.949219 272.097656 136.96875 272.238281 137.050781 C 272.378906 137.132812 272.46875 137.253906 272.507812 137.410156 C 273.449219 141.011719 274.167969 144.660156 274.652344 148.351562 C 275.136719 152.046875 275.390625 155.753906 275.410156 159.476562 C 275.429688 163.203125 275.21875 166.914062 274.769531 170.609375 C 274.324219 174.308594 273.648438 177.964844 272.742188 181.574219 C 271.835938 185.1875 270.707031 188.730469 269.355469 192.199219 C 268.003906 195.671875 266.441406 199.042969 264.664062 202.316406 C 262.890625 205.589844 260.917969 208.742188 258.746094 211.765625 C 256.574219 214.792969 254.222656 217.671875 251.691406 220.402344 C 251.574219 220.523438 251.429688 220.585938 251.257812 220.585938 Z M 265.890625 121.894531 C 265.648438 121.894531 265.472656 121.785156 265.363281 121.566406 C 263.78125 118.332031 262.007812 115.210938 260.039062 112.195312 C 259.957031 112.0625 259.933594 111.917969 259.96875 111.761719 C 260.003906 111.605469 260.085938 111.484375 260.21875 111.398438 C 260.351562 111.3125 260.496094 111.285156 260.652344 111.316406 C 260.808594 111.34375 260.933594 111.425781 261.023438 111.554688 C 263.019531 114.609375 264.816406 117.773438 266.421875 121.046875 C 266.464844 121.140625 266.484375 121.234375 266.480469 121.335938 C 266.472656 121.4375 266.445312 121.53125 266.390625 121.617188 C 266.335938 121.703125 266.265625 121.769531 266.175781 121.820312 C 266.089844 121.871094 265.992188 121.894531 265.890625 121.894531 Z M 105.039062 193.898438 C 104.773438 193.898438 104.59375 193.777344 104.496094 193.53125 C 102.320312 188.210938 100.679688 182.730469 99.578125 177.089844 C 98.472656 171.449219 97.929688 165.757812 97.9375 160.007812 C 97.9375 111.085938 137.746094 71.28125 186.675781 71.28125 C 189.496094 71.277344 192.3125 71.40625 195.121094 71.671875 C 197.929688 71.933594 200.722656 72.332031 203.492188 72.863281 C 206.261719 73.394531 209.003906 74.058594 211.710938 74.855469 C 214.417969 75.648438 217.082031 76.570312 219.699219 77.621094 C 222.320312 78.667969 224.882812 79.84375 227.390625 81.136719 C 229.894531 82.433594 232.335938 83.84375 234.707031 85.375 C 237.078125 86.902344 239.371094 88.542969 241.585938 90.289062 C 243.800781 92.039062 245.925781 93.890625 247.960938 95.84375 C 248.085938 95.953125 248.148438 96.089844 248.15625 96.257812 C 248.160156 96.421875 248.105469 96.5625 247.992188 96.683594 C 247.878906 96.804688 247.738281 96.863281 247.574219 96.863281 C 247.40625 96.867188 247.265625 96.808594 247.148438 96.691406 C 245.140625 94.765625 243.042969 92.9375 240.859375 91.210938 C 238.671875 89.488281 236.410156 87.871094 234.070312 86.359375 C 231.730469 84.851562 229.324219 83.457031 226.851562 82.179688 C 224.375 80.902344 221.847656 79.746094 219.261719 78.710938 C 216.679688 77.675781 214.050781 76.765625 211.378906 75.980469 C 208.707031 75.195312 206.003906 74.542969 203.269531 74.019531 C 200.535156 73.492188 197.78125 73.101562 195.011719 72.839844 C 192.238281 72.578125 189.460938 72.449219 186.675781 72.457031 C 138.394531 72.457031 99.113281 111.730469 99.113281 160.007812 C 99.101562 165.679688 99.640625 171.300781 100.726562 176.867188 C 101.816406 182.433594 103.433594 187.839844 105.578125 193.089844 C 105.640625 193.242188 105.640625 193.390625 105.578125 193.542969 C 105.515625 193.691406 105.410156 193.796875 105.257812 193.859375 C 105.1875 193.886719 105.113281 193.898438 105.039062 193.898438 Z M 122.089844 220.585938 C 121.921875 220.585938 121.777344 220.523438 121.660156 220.402344 C 117.96875 216.425781 114.660156 212.148438 111.746094 207.570312 C 111.660156 207.433594 111.632812 207.285156 111.667969 207.128906 C 111.703125 206.96875 111.789062 206.847656 111.925781 206.761719 C 112.0625 206.675781 112.210938 206.648438 112.367188 206.683594 C 112.527344 206.71875 112.648438 206.804688 112.734375 206.941406 C 115.613281 211.457031 118.875 215.675781 122.523438 219.597656 C 122.699219 219.789062 122.734375 220 122.632812 220.234375 C 122.527344 220.46875 122.347656 220.585938 122.09375 220.585938 Z M 210.003906 180.460938 C 208.414062 180.449219 206.867188 180.183594 205.367188 179.65625 C 205.101562 179.566406 204.96875 179.382812 204.96875 179.101562 C 204.96875 178.824219 205.097656 178.636719 205.363281 178.546875 C 210.253906 176.851562 211.585938 172.667969 210.738281 169.277344 C 209.964844 166.179688 206.171875 163.160156 199.675781 163.867188 C 198.199219 164.015625 196.753906 163.863281 195.339844 163.410156 C 193.925781 162.957031 192.664062 162.238281 191.550781 161.257812 C 190.574219 160.398438 189.820312 159.378906 189.285156 158.195312 C 188.75 157.011719 188.484375 155.769531 188.484375 154.46875 C 188.484375 149.535156 191.097656 145.777344 195.835938 143.890625 C 203.132812 140.980469 213.371094 143.160156 218.664062 148.742188 C 225.589844 156.054688 226.394531 166.417969 220.664062 174.523438 C 217.910156 178.417969 214.167969 180.460938 210.003906 180.460938 Z M 207.300781 178.988281 C 207.746094 178.769531 208.167969 178.511719 208.570312 178.21875 C 208.96875 177.925781 209.34375 177.597656 209.6875 177.242188 C 210.03125 176.886719 210.34375 176.503906 210.625 176.09375 C 210.90625 175.683594 211.148438 175.25 211.355469 174.800781 C 211.5625 174.347656 211.730469 173.882812 211.855469 173.402344 C 211.984375 172.921875 212.070312 172.433594 212.113281 171.941406 C 212.15625 171.445312 212.160156 170.953125 212.121094 170.457031 C 212.082031 169.960938 212 169.472656 211.875 168.992188 C 210.984375 165.414062 206.730469 161.914062 199.550781 162.699219 C 198.238281 162.835938 196.953125 162.703125 195.699219 162.296875 C 194.445312 161.894531 193.324219 161.257812 192.335938 160.382812 C 191.484375 159.636719 190.828125 158.746094 190.359375 157.714844 C 189.894531 156.683594 189.660156 155.601562 189.660156 154.46875 C 189.660156 148.800781 193.257812 146.179688 196.273438 144.976562 C 203.042969 142.277344 212.90625 144.371094 217.808594 149.546875 C 224.34375 156.441406 225.105469 166.207031 219.703125 173.84375 C 217.839844 176.488281 213.828125 180.460938 207.300781 178.988281 Z M 173.542969 210.261719 C 172.007812 210.253906 170.492188 210.074219 168.996094 209.722656 C 167.5 209.371094 166.0625 208.855469 164.6875 208.175781 C 163.308594 207.496094 162.023438 206.667969 160.835938 205.695312 C 159.648438 204.722656 158.585938 203.625 157.644531 202.410156 C 157.546875 202.28125 157.511719 202.136719 157.535156 201.972656 C 157.558594 201.8125 157.632812 201.683594 157.761719 201.585938 C 157.894531 201.488281 158.039062 201.453125 158.199219 201.476562 C 158.359375 201.5 158.488281 201.574219 158.585938 201.707031 C 159.605469 203.03125 160.78125 204.199219 162.113281 205.210938 C 163.441406 206.222656 164.882812 207.042969 166.429688 207.675781 C 167.980469 208.304688 169.582031 208.722656 171.242188 208.925781 C 172.902344 209.128906 174.558594 209.113281 176.214844 208.878906 C 176.375 208.855469 176.519531 208.890625 176.652344 208.984375 C 176.78125 209.078125 176.859375 209.207031 176.886719 209.367188 C 176.914062 209.527344 176.878906 209.671875 176.78125 209.804688 C 176.6875 209.933594 176.558594 210.015625 176.398438 210.039062 C 175.453125 210.1875 174.5 210.261719 173.542969 210.261719 Z M 219.644531 204.042969 C 219.503906 204.042969 219.378906 203.996094 219.269531 203.90625 C 219.160156 203.816406 219.09375 203.703125 219.066406 203.5625 C 219.042969 203.421875 219.0625 203.292969 219.132812 203.167969 C 219.203125 203.046875 219.304688 202.957031 219.4375 202.90625 C 220.5 202.503906 221.546875 202.054688 222.574219 201.570312 C 223.601562 201.082031 224.609375 200.554688 225.597656 199.988281 C 226.582031 199.421875 227.546875 198.820312 228.484375 198.175781 C 229.425781 197.535156 230.339844 196.859375 231.226562 196.144531 C 232.109375 195.429688 232.96875 194.683594 233.796875 193.902344 C 234.625 193.121094 235.417969 192.308594 236.183594 191.464844 C 236.945312 190.625 237.675781 189.75 238.371094 188.851562 C 239.066406 187.949219 239.726562 187.023438 240.347656 186.070312 C 240.972656 185.117188 241.554688 184.144531 242.101562 183.144531 C 242.648438 182.148438 243.152344 181.128906 243.621094 180.089844 C 244.085938 179.054688 244.511719 178 244.894531 176.925781 C 245.277344 175.855469 245.617188 174.769531 245.917969 173.671875 C 246.214844 172.574219 246.46875 171.46875 246.679688 170.347656 C 246.890625 169.230469 247.058594 168.105469 247.179688 166.976562 C 247.304688 165.84375 247.382812 164.710938 247.417969 163.570312 C 247.449219 162.433594 247.4375 161.296875 247.382812 160.160156 C 247.375 160 247.425781 159.859375 247.535156 159.738281 C 247.644531 159.617188 247.777344 159.554688 247.941406 159.546875 C 248.105469 159.527344 248.25 159.574219 248.375 159.683594 C 248.5 159.796875 248.558594 159.9375 248.554688 160.105469 C 248.613281 161.269531 248.625 162.4375 248.589844 163.605469 C 248.554688 164.773438 248.472656 165.941406 248.347656 167.101562 C 248.222656 168.261719 248.050781 169.417969 247.835938 170.566406 C 247.617188 171.714844 247.355469 172.851562 247.050781 173.980469 C 246.742188 175.109375 246.394531 176.222656 246 177.320312 C 245.605469 178.421875 245.171875 179.503906 244.691406 180.570312 C 244.214844 181.636719 243.695312 182.683594 243.132812 183.707031 C 242.570312 184.734375 241.972656 185.734375 241.332031 186.714844 C 240.691406 187.691406 240.015625 188.644531 239.300781 189.566406 C 238.589844 190.492188 237.839844 191.386719 237.054688 192.253906 C 236.269531 193.121094 235.453125 193.953125 234.601562 194.757812 C 233.753906 195.558594 232.871094 196.324219 231.960938 197.058594 C 231.050781 197.789062 230.113281 198.488281 229.148438 199.144531 C 228.183594 199.804688 227.195312 200.425781 226.183594 201.007812 C 225.167969 201.589844 224.132812 202.128906 223.078125 202.628906 C 222.023438 203.128906 220.949219 203.585938 219.855469 204.003906 C 219.789062 204.03125 219.71875 204.042969 219.644531 204.042969 Z M 160.164062 215.992188 C 160.085938 215.992188 160.007812 215.976562 159.933594 215.945312 C 159 215.542969 158.089844 215.09375 157.203125 214.601562 C 156.316406 214.109375 155.457031 213.574219 154.625 212.996094 C 153.789062 212.417969 152.988281 211.800781 152.214844 211.140625 C 151.441406 210.484375 150.703125 209.789062 150 209.054688 C 149.300781 208.324219 148.632812 207.558594 148.007812 206.761719 C 147.382812 205.960938 146.796875 205.136719 146.25 204.277344 C 145.707031 203.421875 145.207031 202.542969 144.75 201.636719 C 144.292969 200.730469 143.882812 199.800781 143.519531 198.855469 C 143.15625 197.90625 142.839844 196.945312 142.570312 195.964844 C 142.300781 194.988281 142.082031 194 141.914062 192.996094 C 141.742188 191.996094 141.625 190.992188 141.554688 189.976562 C 141.484375 188.964844 141.46875 187.953125 141.5 186.9375 C 141.53125 185.925781 141.613281 184.914062 141.742188 183.90625 C 141.875 182.902344 142.058594 181.90625 142.289062 180.917969 C 142.519531 179.929688 142.800781 178.957031 143.128906 177.996094 C 143.457031 177.035156 143.832031 176.09375 144.257812 175.171875 C 144.324219 175.023438 144.433594 174.921875 144.585938 174.863281 C 144.738281 174.808594 144.886719 174.8125 145.035156 174.878906 C 145.183594 174.949219 145.285156 175.058594 145.339844 175.210938 C 145.398438 175.363281 145.390625 175.511719 145.324219 175.660156 C 144.917969 176.546875 144.558594 177.453125 144.242188 178.375 C 143.925781 179.296875 143.65625 180.234375 143.433594 181.183594 C 143.210938 182.136719 143.035156 183.09375 142.910156 184.0625 C 142.78125 185.027344 142.703125 186 142.671875 186.976562 C 142.644531 187.949219 142.660156 188.925781 142.726562 189.898438 C 142.792969 190.871094 142.910156 191.839844 143.074219 192.800781 C 143.234375 193.765625 143.445312 194.714844 143.703125 195.65625 C 143.960938 196.597656 144.265625 197.523438 144.617188 198.433594 C 144.964844 199.34375 145.359375 200.234375 145.800781 201.109375 C 146.238281 201.980469 146.71875 202.828125 147.242188 203.648438 C 147.765625 204.472656 148.332031 205.269531 148.933594 206.035156 C 149.535156 206.804688 150.175781 207.539062 150.851562 208.242188 C 151.527344 208.945312 152.234375 209.613281 152.976562 210.246094 C 153.722656 210.882812 154.492188 211.476562 155.292969 212.03125 C 156.097656 212.589844 156.925781 213.101562 157.777344 213.578125 C 158.628906 214.050781 159.503906 214.480469 160.402344 214.867188 C 160.527344 214.921875 160.621094 215.011719 160.6875 215.136719 C 160.75 215.257812 160.765625 215.386719 160.738281 215.523438 C 160.710938 215.660156 160.644531 215.769531 160.535156 215.859375 C 160.429688 215.945312 160.304688 215.988281 160.167969 215.992188 Z M 161.171875 140.4375 C 161.117188 140.4375 161.0625 140.429688 161.011719 140.414062 C 156.015625 138.992188 152.382812 134.585938 152.378906 129.941406 C 152.375 126.371094 154.441406 122.78125 157.902344 120.335938 C 161.167969 118.039062 165.171875 117.023438 168.296875 116.386719 C 168.453125 116.359375 168.597656 116.390625 168.726562 116.480469 C 168.859375 116.570312 168.941406 116.695312 168.972656 116.851562 C 169.003906 117.007812 168.976562 117.152344 168.890625 117.285156 C 168.804688 117.417969 168.683594 117.503906 168.527344 117.539062 C 165.519531 118.148438 161.667969 119.125 158.578125 121.292969 C 155.476562 123.488281 153.550781 126.800781 153.550781 129.941406 C 153.554688 134.007812 156.898438 138.023438 161.328125 139.289062 C 161.46875 139.328125 161.582031 139.410156 161.660156 139.53125 C 161.738281 139.65625 161.769531 139.789062 161.75 139.933594 C 161.730469 140.078125 161.664062 140.199219 161.554688 140.296875 C 161.441406 140.390625 161.316406 140.4375 161.167969 140.4375 Z M 131.855469 202.492188 C 131.628906 202.492188 131.460938 202.394531 131.347656 202.199219 C 122.535156 187.046875 126.074219 176.347656 128.964844 171.320312 C 132.824219 164.613281 139.917969 160.105469 146.613281 160.105469 C 159.300781 160.105469 166.007812 168.386719 173.109375 177.152344 C 180.597656 186.398438 188.34375 195.957031 203.925781 195.957031 C 229.46875 195.957031 238.988281 175.503906 238.988281 162.609375 C 238.988281 147.386719 228.015625 131.003906 203.925781 131.003906 C 190.792969 131.003906 178.980469 137.175781 167.558594 143.144531 C 157.617188 148.332031 148.238281 153.234375 139.136719 153.234375 C 128.566406 153.234375 122.257812 147.140625 122.257812 136.925781 C 122.257812 129.839844 127.554688 121.144531 135.75 114.777344 C 147.777344 105.425781 163.703125 102.601562 179.433594 107.019531 C 181.507812 107.601562 183.511719 108.253906 185.628906 108.945312 C 189.585938 110.304688 193.605469 111.441406 197.683594 112.367188 C 204.011719 113.726562 207.34375 110.925781 208.355469 107.851562 C 209.449219 104.527344 208.066406 99.84375 203.339844 97.707031 C 200.695312 96.507812 196.214844 95.523438 189.925781 97.613281 C 189.792969 97.660156 189.660156 97.65625 189.527344 97.601562 C 189.394531 97.550781 189.296875 97.464844 189.226562 97.339844 C 189.160156 97.214844 189.136719 97.085938 189.164062 96.945312 C 189.191406 96.808594 189.257812 96.691406 189.367188 96.601562 C 190.0625 96.039062 190.792969 95.53125 191.566406 95.078125 C 192.339844 94.628906 193.140625 94.238281 193.972656 93.910156 C 194.804688 93.582031 195.65625 93.320312 196.527344 93.121094 C 197.398438 92.921875 198.28125 92.792969 199.171875 92.730469 C 200.066406 92.667969 200.957031 92.675781 201.847656 92.75 C 202.738281 92.824219 203.621094 92.96875 204.488281 93.175781 C 205.359375 93.386719 206.207031 93.660156 207.035156 94 C 207.859375 94.34375 208.65625 94.742188 209.421875 95.207031 C 210.492188 95.867188 211.457031 96.652344 212.324219 97.5625 C 213.191406 98.46875 213.929688 99.472656 214.539062 100.574219 C 215.144531 101.671875 215.605469 102.828125 215.917969 104.046875 C 216.230469 105.261719 216.382812 106.5 216.375 107.757812 C 216.136719 116.253906 207.582031 121.398438 199.644531 121.925781 C 195.917969 122.171875 191.996094 121.527344 186.910156 119.828125 C 186.296875 119.621094 185.695312 119.414062 185.101562 119.210938 C 182.226562 118.21875 179.507812 117.28125 177.066406 117.199219 C 176.90625 117.191406 176.769531 117.128906 176.660156 117.011719 C 176.550781 116.894531 176.496094 116.753906 176.5 116.59375 C 176.515625 116.433594 176.578125 116.300781 176.695312 116.191406 C 176.8125 116.082031 176.949219 116.027344 177.105469 116.023438 C 179.722656 116.113281 182.523438 117.078125 185.484375 118.09375 C 186.074219 118.296875 186.671875 118.503906 187.285156 118.707031 C 192.21875 120.359375 196.015625 120.992188 199.566406 120.75 C 206.984375 120.257812 214.984375 115.523438 215.199219 107.71875 C 215.203125 106.566406 215.0625 105.429688 214.773438 104.316406 C 214.488281 103.199219 214.0625 102.136719 213.503906 101.128906 C 212.941406 100.121094 212.265625 99.199219 211.46875 98.363281 C 210.671875 97.53125 209.78125 96.8125 208.800781 96.207031 C 207.625 95.492188 206.378906 94.941406 205.0625 94.542969 C 203.746094 94.148438 202.398438 93.921875 201.027344 93.867188 C 199.652344 93.816406 198.292969 93.933594 196.949219 94.222656 C 195.605469 94.515625 194.320312 94.96875 193.089844 95.585938 C 197.925781 94.699219 201.515625 95.597656 203.824219 96.640625 C 209.171875 99.058594 210.722656 104.414062 209.46875 108.222656 C 208.351562 111.617188 204.519531 115.035156 197.4375 113.519531 C 193.316406 112.585938 189.261719 111.4375 185.265625 110.066406 C 183.15625 109.378906 181.164062 108.730469 179.113281 108.152344 C 163.746094 103.835938 148.199219 106.589844 136.46875 115.707031 C 128.546875 121.859375 123.429688 130.191406 123.429688 136.929688 C 123.429688 141.480469 124.960938 152.0625 139.136719 152.0625 C 147.949219 152.0625 157.210938 147.226562 167.011719 142.105469 C 178.5625 136.070312 190.503906 129.832031 203.925781 129.832031 C 228.824219 129.832031 240.164062 146.824219 240.164062 162.613281 C 240.164062 175.960938 230.328125 197.132812 203.925781 197.132812 C 187.785156 197.132812 179.859375 187.351562 172.199219 177.894531 C 165.277344 169.351562 158.742188 161.285156 146.613281 161.285156 C 140.324219 161.285156 133.640625 165.554688 129.984375 171.910156 C 127.21875 176.71875 123.847656 186.96875 132.363281 201.613281 C 132.476562 201.808594 132.476562 202.003906 132.363281 202.199219 C 132.25 202.398438 132.082031 202.496094 131.855469 202.496094 Z M 163.925781 235.945312 L 157.539062 235.945312 C 157.378906 235.941406 157.246094 235.882812 157.136719 235.765625 C 157.023438 235.652344 156.96875 235.515625 156.96875 235.359375 C 156.96875 235.199219 157.023438 235.0625 157.136719 234.949219 C 157.246094 234.835938 157.378906 234.777344 157.539062 234.773438 L 163.925781 234.773438 C 164.085938 234.777344 164.21875 234.835938 164.328125 234.949219 C 164.441406 235.0625 164.496094 235.199219 164.496094 235.359375 C 164.496094 235.515625 164.441406 235.652344 164.328125 235.765625 C 164.21875 235.882812 164.085938 235.941406 163.925781 235.945312 Z M 222.519531 236.042969 L 207.570312 236.042969 C 207.402344 236.046875 207.261719 235.992188 207.140625 235.878906 C 207.023438 235.761719 206.960938 235.621094 206.960938 235.457031 C 206.960938 235.289062 207.023438 235.148438 207.140625 235.035156 C 207.261719 234.917969 207.402344 234.863281 207.570312 234.867188 L 222.523438 234.867188 C 222.683594 234.871094 222.816406 234.933594 222.929688 235.046875 C 223.039062 235.160156 223.09375 235.296875 223.09375 235.457031 C 223.09375 235.613281 223.039062 235.75 222.929688 235.863281 C 222.816406 235.976562 222.683594 236.039062 222.523438 236.042969 Z M 212.078125 241.59375 L 184.757812 241.59375 C 184.597656 241.59375 184.457031 241.535156 184.34375 241.421875 C 184.230469 241.308594 184.171875 241.167969 184.171875 241.007812 C 184.171875 240.84375 184.230469 240.707031 184.34375 240.589844 C 184.457031 240.476562 184.597656 240.417969 184.757812 240.417969 L 212.082031 240.417969 C 212.242188 240.417969 212.382812 240.476562 212.496094 240.589844 C 212.609375 240.707031 212.667969 240.84375 212.667969 241.007812 C 212.667969 241.167969 212.609375 241.308594 212.496094 241.421875 C 212.382812 241.535156 212.242188 241.59375 212.082031 241.59375 Z M 170.003906 241.882812 C 170.171875 241.886719 170.3125 241.832031 170.433594 241.71875 C 170.550781 241.601562 170.613281 241.460938 170.613281 241.296875 C 170.613281 241.128906 170.550781 240.988281 170.433594 240.875 C 170.3125 240.757812 170.171875 240.703125 170.003906 240.707031 L 143.230469 240.707031 C 143.476562 239.953125 143.636719 239.179688 143.710938 238.386719 C 143.824219 237.609375 143.78125 236.839844 143.582031 236.078125 C 143.382812 235.320312 143.042969 234.628906 142.558594 234.007812 C 142.921875 233.644531 143.242188 233.25 143.519531 232.820312 C 143.800781 232.394531 144.03125 231.941406 144.214844 231.460938 C 144.398438 230.984375 144.535156 230.496094 144.617188 229.988281 C 144.699219 229.484375 144.726562 228.976562 144.703125 228.464844 C 144.679688 227.957031 144.601562 227.453125 144.472656 226.957031 C 144.34375 226.464844 144.164062 225.988281 143.9375 225.53125 C 143.707031 225.070312 143.433594 224.644531 143.117188 224.242188 C 142.796875 223.84375 142.441406 223.480469 142.046875 223.152344 L 142.203125 223.03125 C 147.78125 218.632812 152.785156 220.890625 159.683594 224.015625 C 165.136719 226.480469 171.300781 229.269531 179.339844 229.398438 C 179.375 229.855469 179.453125 230.304688 179.574219 230.746094 C 179.695312 231.1875 179.859375 231.613281 180.058594 232.027344 C 180.257812 232.4375 180.496094 232.828125 180.769531 233.195312 C 181.042969 233.5625 181.347656 233.902344 181.6875 234.210938 C 182.023438 234.523438 182.386719 234.800781 182.773438 235.042969 C 183.160156 235.285156 183.570312 235.488281 183.996094 235.65625 C 184.421875 235.824219 184.863281 235.949219 185.3125 236.035156 C 185.761719 236.117188 186.214844 236.160156 186.675781 236.160156 C 187.132812 236.160156 187.585938 236.117188 188.035156 236.035156 C 188.488281 235.949219 188.925781 235.824219 189.351562 235.65625 C 189.777344 235.488281 190.1875 235.285156 190.574219 235.042969 C 190.964844 234.800781 191.324219 234.523438 191.664062 234.210938 C 192 233.902344 192.304688 233.5625 192.578125 233.195312 C 192.851562 232.828125 193.089844 232.4375 193.289062 232.027344 C 193.492188 231.613281 193.652344 231.1875 193.773438 230.746094 C 193.894531 230.304688 193.972656 229.855469 194.007812 229.398438 C 202.050781 229.273438 208.210938 226.484375 213.664062 224.015625 C 220.496094 220.921875 225.417969 218.691406 230.972656 222.898438 C 231.050781 222.957031 231.191406 223.066406 231.296875 223.152344 C 230.90625 223.480469 230.546875 223.84375 230.230469 224.242188 C 229.914062 224.644531 229.640625 225.074219 229.410156 225.53125 C 229.183594 225.988281 229.003906 226.464844 228.875 226.957031 C 228.746094 227.453125 228.667969 227.957031 228.644531 228.46875 C 228.621094 228.976562 228.652344 229.484375 228.734375 229.992188 C 228.816406 230.496094 228.949219 230.988281 229.132812 231.464844 C 229.316406 231.941406 229.550781 232.394531 229.828125 232.820312 C 230.109375 233.25 230.429688 233.644531 230.789062 234.007812 C 230.308594 234.628906 229.96875 235.320312 229.769531 236.082031 C 229.570312 236.84375 229.527344 237.613281 229.640625 238.394531 C 229.832031 240.003906 230.316406 241.519531 231.09375 242.945312 C 231.867188 244.367188 232.878906 245.597656 234.125 246.632812 L 139.226562 246.632812 C 140.777344 245.328125 141.964844 243.746094 142.78125 241.886719 Z M 242.769531 261.851562 L 130.578125 261.851562 C 130.414062 261.851562 130.277344 261.792969 130.160156 261.679688 C 130.046875 261.5625 129.988281 261.425781 129.988281 261.261719 L 129.988281 247.21875 C 129.988281 247.054688 130.046875 246.917969 130.160156 246.800781 C 130.277344 246.6875 130.414062 246.628906 130.578125 246.628906 L 137.195312 246.628906 C 137.925781 246.179688 138.597656 245.65625 139.207031 245.054688 C 139.820312 244.453125 140.359375 243.792969 140.820312 243.070312 C 141.285156 242.347656 141.660156 241.582031 141.949219 240.777344 C 142.242188 239.96875 142.4375 239.140625 142.542969 238.289062 C 142.640625 237.667969 142.613281 237.050781 142.460938 236.441406 C 142.308594 235.832031 142.042969 235.273438 141.667969 234.769531 C 141.414062 234.953125 141.148438 235.121094 140.871094 235.273438 C 140.59375 235.421875 140.308594 235.554688 140.015625 235.667969 C 139.722656 235.78125 139.425781 235.875 139.117188 235.953125 C 138.8125 236.027344 138.503906 236.082031 138.191406 236.121094 C 137.878906 236.15625 137.566406 236.171875 137.25 236.167969 C 136.9375 236.164062 136.625 236.136719 136.3125 236.09375 C 136 236.046875 135.695312 235.984375 135.390625 235.902344 C 135.085938 235.816406 134.789062 235.714844 134.5 235.59375 C 134.210938 235.46875 133.929688 235.328125 133.65625 235.171875 C 133.386719 235.015625 133.125 234.839844 132.875 234.648438 C 132.625 234.457031 132.390625 234.25 132.167969 234.027344 C 131.941406 233.804688 131.734375 233.570312 131.542969 233.324219 C 131.347656 233.074219 131.171875 232.8125 131.011719 232.542969 C 130.855469 232.273438 130.710938 231.992188 130.589844 231.703125 C 130.464844 231.414062 130.359375 231.117188 130.273438 230.816406 C 130.1875 230.511719 130.121094 230.207031 130.078125 229.894531 C 130.03125 229.582031 130.003906 229.269531 129.996094 228.957031 C 129.992188 228.640625 130.003906 228.328125 130.039062 228.015625 C 130.074219 227.703125 130.128906 227.394531 130.203125 227.085938 C 130.273438 226.78125 130.367188 226.480469 130.480469 226.1875 C 130.59375 225.894531 130.722656 225.609375 130.871094 225.332031 C 131.019531 225.054688 131.1875 224.789062 131.371094 224.53125 C 131.550781 224.277344 131.75 224.03125 131.964844 223.800781 C 132.179688 223.570312 132.40625 223.355469 132.648438 223.15625 C 132.890625 222.953125 133.144531 222.769531 133.410156 222.601562 C 133.675781 222.433594 133.949219 222.28125 134.234375 222.148438 C 134.519531 222.015625 134.8125 221.898438 135.113281 221.804688 C 135.414062 221.707031 135.71875 221.632812 136.027344 221.574219 C 136.335938 221.519531 136.648438 221.480469 136.960938 221.464844 C 137.277344 221.449219 137.589844 221.453125 137.902344 221.476562 C 138.21875 221.5 138.527344 221.542969 138.835938 221.605469 C 139.144531 221.667969 139.445312 221.753906 139.746094 221.855469 C 137.386719 220.050781 135.144531 218.121094 133.007812 216.0625 C 130.875 214 128.863281 211.828125 126.980469 209.535156 C 125.09375 207.246094 123.34375 204.855469 121.734375 202.363281 C 120.125 199.875 118.660156 197.300781 117.34375 194.640625 C 116.027344 191.980469 114.867188 189.257812 113.863281 186.464844 C 112.859375 183.675781 112.019531 180.835938 111.34375 177.945312 C 110.664062 175.058594 110.152344 172.140625 109.808594 169.195312 C 109.464844 166.25 109.292969 163.292969 109.289062 160.328125 C 109.289062 117.652344 144.003906 82.9375 186.675781 82.9375 C 229.347656 82.9375 264.0625 117.652344 264.0625 160.328125 C 264.058594 163.292969 263.882812 166.25 263.539062 169.195312 C 263.195312 172.140625 262.683594 175.054688 262.003906 177.945312 C 261.328125 180.832031 260.488281 183.671875 259.484375 186.460938 C 258.480469 189.253906 257.320312 191.976562 256.003906 194.636719 C 254.691406 197.292969 253.226562 199.867188 251.617188 202.359375 C 250.007812 204.847656 248.257812 207.238281 246.375 209.53125 C 244.492188 211.820312 242.480469 213.996094 240.347656 216.054688 C 238.214844 218.117188 235.972656 220.046875 233.617188 221.851562 C 233.914062 221.75 234.21875 221.664062 234.523438 221.601562 C 234.832031 221.539062 235.144531 221.496094 235.457031 221.472656 C 235.773438 221.449219 236.085938 221.445312 236.402344 221.460938 C 236.714844 221.480469 237.027344 221.515625 237.335938 221.574219 C 237.644531 221.628906 237.949219 221.707031 238.25 221.804688 C 238.550781 221.898438 238.84375 222.011719 239.128906 222.148438 C 239.414062 222.28125 239.6875 222.433594 239.953125 222.601562 C 240.21875 222.769531 240.472656 222.953125 240.714844 223.15625 C 240.957031 223.355469 241.183594 223.574219 241.398438 223.804688 C 241.613281 224.035156 241.8125 224.277344 241.996094 224.535156 C 242.175781 224.789062 242.34375 225.058594 242.492188 225.335938 C 242.640625 225.613281 242.769531 225.898438 242.882812 226.191406 C 242.996094 226.484375 243.085938 226.785156 243.160156 227.09375 C 243.234375 227.398438 243.289062 227.707031 243.320312 228.019531 C 243.355469 228.332031 243.371094 228.648438 243.363281 228.960938 C 243.355469 229.277344 243.332031 229.589844 243.285156 229.902344 C 243.238281 230.210938 243.171875 230.519531 243.085938 230.820312 C 243 231.125 242.894531 231.421875 242.769531 231.710938 C 242.644531 232 242.503906 232.28125 242.34375 232.550781 C 242.183594 232.820312 242.007812 233.082031 241.816406 233.328125 C 241.621094 233.578125 241.414062 233.8125 241.191406 234.035156 C 240.964844 234.257812 240.730469 234.464844 240.480469 234.65625 C 240.230469 234.847656 239.96875 235.019531 239.695312 235.179688 C 239.425781 235.335938 239.144531 235.476562 238.851562 235.597656 C 238.5625 235.71875 238.265625 235.824219 237.960938 235.90625 C 237.660156 235.988281 237.351562 236.054688 237.039062 236.097656 C 236.730469 236.140625 236.414062 236.167969 236.101562 236.171875 C 235.785156 236.175781 235.472656 236.160156 235.160156 236.121094 C 234.847656 236.085938 234.539062 236.03125 234.234375 235.953125 C 233.925781 235.878906 233.628906 235.785156 233.335938 235.667969 C 233.042969 235.554688 232.757812 235.421875 232.480469 235.273438 C 232.203125 235.121094 231.9375 234.953125 231.683594 234.769531 C 231.308594 235.273438 231.042969 235.832031 230.890625 236.441406 C 230.738281 237.050781 230.710938 237.667969 230.808594 238.289062 C 230.914062 239.140625 231.109375 239.96875 231.402344 240.777344 C 231.691406 241.585938 232.066406 242.347656 232.53125 243.070312 C 232.992188 243.792969 233.53125 244.453125 234.144531 245.054688 C 234.753906 245.65625 235.425781 246.179688 236.15625 246.632812 L 242.773438 246.632812 C 242.933594 246.632812 243.074219 246.6875 243.1875 246.804688 C 243.300781 246.917969 243.359375 247.054688 243.359375 247.21875 L 243.359375 261.265625 C 243.359375 261.429688 243.300781 261.566406 243.1875 261.679688 C 243.074219 261.796875 242.933594 261.851562 242.773438 261.851562 Z M 137.339844 247.804688 L 131.164062 247.804688 L 131.164062 260.679688 L 242.183594 260.679688 L 242.183594 247.804688 Z M 141.21875 233.632812 C 141.007812 233.800781 140.789062 233.957031 140.558594 234.097656 C 140.328125 234.234375 140.089844 234.359375 139.84375 234.46875 C 139.601562 234.578125 139.347656 234.671875 139.089844 234.746094 C 138.832031 234.820312 138.570312 234.882812 138.304688 234.921875 C 138.039062 234.964844 137.773438 234.988281 137.503906 234.996094 C 137.234375 235.003906 136.964844 234.992188 136.699219 234.964844 C 136.429688 234.9375 136.167969 234.894531 135.90625 234.832031 C 135.644531 234.769531 135.386719 234.691406 135.136719 234.59375 C 134.882812 234.5 134.640625 234.386719 134.402344 234.261719 C 134.167969 234.132812 133.9375 233.992188 133.71875 233.835938 C 133.503906 233.679688 133.292969 233.507812 133.097656 233.324219 C 132.902344 233.140625 132.71875 232.945312 132.546875 232.738281 C 132.378906 232.527344 132.21875 232.3125 132.078125 232.082031 C 131.9375 231.855469 131.808594 231.617188 131.695312 231.375 C 131.585938 231.128906 131.488281 230.878906 131.410156 230.621094 C 131.332031 230.363281 131.269531 230.101562 131.226562 229.839844 C 131.179688 229.574219 131.152344 229.304688 131.140625 229.039062 C 131.132812 228.769531 131.136719 228.5 131.164062 228.234375 C 131.1875 227.964844 131.230469 227.699219 131.289062 227.4375 C 131.347656 227.175781 131.421875 226.917969 131.515625 226.664062 C 131.609375 226.414062 131.71875 226.167969 131.839844 225.929688 C 131.964844 225.691406 132.105469 225.460938 132.257812 225.242188 C 132.414062 225.019531 132.582031 224.8125 132.761719 224.613281 C 132.945312 224.414062 133.136719 224.230469 133.34375 224.054688 C 133.550781 223.882812 133.765625 223.722656 133.992188 223.578125 C 134.21875 223.433594 134.453125 223.304688 134.695312 223.191406 C 134.941406 223.074219 135.191406 222.976562 135.445312 222.894531 C 135.703125 222.8125 135.960938 222.746094 136.226562 222.699219 C 136.492188 222.652344 136.757812 222.621094 137.027344 222.609375 C 137.296875 222.59375 137.5625 222.597656 137.832031 222.621094 C 138.101562 222.640625 138.363281 222.679688 138.628906 222.734375 C 138.890625 222.792969 139.148438 222.863281 139.402344 222.953125 C 139.65625 223.042969 139.902344 223.148438 140.144531 223.269531 C 140.382812 223.394531 140.613281 223.53125 140.835938 223.679688 C 141.058594 223.832031 141.269531 224 141.46875 224.175781 C 141.667969 224.355469 141.859375 224.546875 142.03125 224.75 C 142.207031 224.957031 142.371094 225.167969 142.519531 225.394531 C 142.664062 225.621094 142.796875 225.851562 142.914062 226.09375 C 143.03125 226.335938 143.132812 226.585938 143.21875 226.839844 C 143.304688 227.09375 143.371094 227.355469 143.421875 227.617188 C 143.472656 227.882812 143.507812 228.148438 143.523438 228.417969 C 143.542969 228.6875 143.539062 228.953125 143.523438 229.222656 C 143.503906 229.492188 143.46875 229.757812 143.414062 230.019531 C 143.363281 230.285156 143.292969 230.542969 143.207031 230.796875 C 143.121094 231.050781 143.015625 231.300781 142.898438 231.539062 C 142.777344 231.78125 142.644531 232.015625 142.496094 232.238281 C 142.347656 232.460938 142.183594 232.675781 142.007812 232.878906 C 141.828125 233.082031 141.640625 233.269531 141.4375 233.449219 C 141.351562 233.492188 141.277344 233.554688 141.21875 233.632812 Z M 186.675781 222.625 C 187.082031 222.625 187.484375 222.667969 187.882812 222.746094 C 188.28125 222.824219 188.667969 222.941406 189.042969 223.097656 C 189.417969 223.253906 189.773438 223.445312 190.109375 223.667969 C 190.449219 223.894531 190.761719 224.152344 191.046875 224.4375 C 191.335938 224.726562 191.589844 225.039062 191.816406 225.375 C 192.042969 225.714844 192.234375 226.070312 192.386719 226.445312 C 192.542969 226.820312 192.660156 227.207031 192.738281 227.605469 C 192.820312 228.003906 192.859375 228.40625 192.859375 228.8125 C 192.859375 229.21875 192.820312 229.621094 192.738281 230.019531 C 192.660156 230.417969 192.542969 230.804688 192.386719 231.179688 C 192.230469 231.554688 192.042969 231.910156 191.816406 232.246094 C 191.589844 232.585938 191.332031 232.898438 191.046875 233.183594 C 190.757812 233.472656 190.445312 233.726562 190.109375 233.953125 C 189.773438 234.179688 189.414062 234.371094 189.039062 234.523438 C 188.664062 234.679688 188.277344 234.796875 187.878906 234.875 C 187.480469 234.957031 187.078125 234.996094 186.671875 234.996094 C 186.269531 234.996094 185.867188 234.957031 185.46875 234.875 C 185.070312 234.796875 184.683594 234.679688 184.308594 234.523438 C 183.933594 234.367188 183.574219 234.179688 183.238281 233.953125 C 182.902344 233.726562 182.589844 233.472656 182.300781 233.183594 C 182.015625 232.898438 181.757812 232.585938 181.53125 232.246094 C 181.304688 231.910156 181.117188 231.550781 180.960938 231.175781 C 180.804688 230.800781 180.6875 230.414062 180.609375 230.015625 C 180.53125 229.617188 180.488281 229.21875 180.488281 228.8125 C 180.492188 228.40625 180.53125 228.003906 180.609375 227.605469 C 180.691406 227.207031 180.808594 226.820312 180.960938 226.445312 C 181.117188 226.070312 181.308594 225.714844 181.535156 225.375 C 181.761719 225.039062 182.015625 224.726562 182.304688 224.441406 C 182.589844 224.152344 182.902344 223.894531 183.242188 223.671875 C 183.578125 223.445312 183.933594 223.253906 184.308594 223.097656 C 184.683594 222.945312 185.070312 222.824219 185.46875 222.746094 C 185.867188 222.667969 186.269531 222.628906 186.675781 222.625 Z M 236 222.625 C 236.40625 222.625 236.808594 222.667969 237.207031 222.746094 C 237.605469 222.824219 237.992188 222.941406 238.367188 223.097656 C 238.742188 223.253906 239.097656 223.445312 239.433594 223.671875 C 239.773438 223.894531 240.085938 224.152344 240.371094 224.4375 C 240.660156 224.726562 240.914062 225.039062 241.140625 225.375 C 241.367188 225.714844 241.558594 226.070312 241.710938 226.445312 C 241.867188 226.820312 241.984375 227.207031 242.0625 227.605469 C 242.144531 228.003906 242.183594 228.40625 242.183594 228.8125 C 242.183594 229.21875 242.140625 229.621094 242.0625 230.019531 C 241.984375 230.417969 241.867188 230.804688 241.710938 231.179688 C 241.554688 231.554688 241.363281 231.910156 241.140625 232.246094 C 240.914062 232.585938 240.65625 232.898438 240.371094 233.183594 C 240.082031 233.472656 239.769531 233.726562 239.433594 233.953125 C 239.09375 234.179688 238.738281 234.371094 238.363281 234.523438 C 237.988281 234.679688 237.601562 234.796875 237.203125 234.875 C 236.804688 234.957031 236.402344 234.996094 235.996094 234.996094 C 235.589844 234.996094 235.1875 234.957031 234.789062 234.875 C 234.390625 234.796875 234.003906 234.679688 233.628906 234.523438 C 233.253906 234.367188 232.898438 234.179688 232.5625 233.953125 C 232.222656 233.726562 231.910156 233.472656 231.625 233.183594 C 231.335938 232.894531 231.082031 232.585938 230.855469 232.246094 C 230.628906 231.910156 230.441406 231.550781 230.285156 231.175781 C 230.128906 230.800781 230.011719 230.414062 229.933594 230.015625 C 229.851562 229.617188 229.8125 229.21875 229.8125 228.8125 C 229.8125 228.40625 229.855469 228.003906 229.933594 227.605469 C 230.011719 227.207031 230.128906 226.820312 230.285156 226.445312 C 230.441406 226.070312 230.632812 225.714844 230.859375 225.375 C 231.085938 225.039062 231.339844 224.726562 231.628906 224.4375 C 231.914062 224.152344 232.226562 223.894531 232.566406 223.671875 C 232.902344 223.445312 233.257812 223.253906 233.632812 223.097656 C 234.007812 222.941406 234.394531 222.824219 234.792969 222.746094 C 235.191406 222.667969 235.59375 222.625 236 222.625 Z M 236 222.625 " fill-opacity="1" fill-rule="evenodd"/></g><g clip-path="url(#12f52e885a)"><path fill="#f6cf94" d="M 66.4375 187.765625 C 66.441406 190.019531 65.886719 192.125 64.78125 194.089844 C 66.519531 197.253906 67.542969 200.441406 67.144531 203.460938 C 67.03125 204.222656 67.054688 204.980469 67.214844 205.738281 C 67.679688 208.085938 67.878906 210.457031 67.808594 212.847656 C 67.804688 213.21875 67.808594 213.566406 67.8125 213.875 L 67.8125 213.910156 C 67.8125 214.789062 67.316406 215.554688 66.375 216.117188 C 62.980469 218.148438 54.804688 217.433594 51.179688 215.417969 C 49.835938 214.667969 49.113281 213.746094 49.097656 212.753906 C 49.082031 211.796875 49.078125 210.871094 49.070312 209.988281 C 49.046875 206.761719 49.03125 203.976562 48.519531 202.902344 C 48.375 202.597656 47.496094 200.988281 46.28125 198.761719 C 39.082031 185.550781 32.394531 173.058594 32.210938 171.109375 C 32.078125 169.640625 34.246094 162.433594 36.636719 154.71875 C 37.160156 153.035156 37.683594 151.351562 38.207031 149.667969 C 39.414062 145.785156 40.503906 142.246094 41.085938 140.089844 C 41.417969 138.839844 42.046875 137.765625 42.972656 136.863281 C 44.070312 135.796875 45.269531 134.617188 46.492188 133.355469 C 46.695312 132.867188 48 129.699219 48.929688 127.4375 C 49.308594 126.515625 49.832031 125.6875 50.507812 124.957031 C 53.726562 121.441406 55.695312 118.945312 57.300781 116.34375 C 57.417969 116.15625 57.578125 116.011719 57.78125 115.917969 C 57.984375 115.820312 58.195312 115.789062 58.417969 115.816406 C 58.636719 115.84375 58.835938 115.933594 59.007812 116.074219 C 59.179688 116.21875 59.296875 116.398438 59.363281 116.609375 C 59.628906 117.445312 59.761719 118.304688 59.765625 119.179688 C 59.765625 119.441406 59.753906 119.703125 59.726562 119.964844 C 60.9375 118.914062 62.042969 117.761719 63.050781 116.515625 C 63.203125 116.3125 63.398438 116.171875 63.636719 116.09375 C 63.878906 116.015625 64.117188 116.015625 64.359375 116.085938 C 64.605469 116.15625 64.808594 116.285156 64.96875 116.480469 C 65.132812 116.675781 65.222656 116.898438 65.25 117.148438 C 65.773438 122.210938 62.785156 128.871094 57.054688 130.863281 C 56.472656 131.734375 55.972656 132.644531 55.550781 133.601562 C 54.96875 134.910156 54.269531 136.152344 53.457031 137.332031 C 55 136.585938 56.488281 135.746094 57.921875 134.808594 C 58.125 134.671875 58.347656 134.601562 58.589844 134.59375 C 58.832031 134.589844 59.058594 134.644531 59.269531 134.769531 C 59.480469 134.890625 59.640625 135.058594 59.753906 135.273438 C 59.867188 135.488281 59.914062 135.714844 59.898438 135.957031 C 59.640625 139.300781 57.234375 144.796875 51.671875 146.359375 C 51.441406 146.808594 51.171875 147.386719 50.867188 148.042969 C 49.667969 150.625 48.035156 154.144531 45.96875 155.855469 C 46.179688 156.859375 46.46875 157.84375 46.832031 158.804688 C 47.574219 160.875 48.183594 162.988281 48.652344 165.140625 C 49.191406 163.777344 49.890625 162.5 50.746094 161.3125 C 53.128906 157.9375 54.507812 154.605469 55.511719 152.175781 C 56.734375 149.214844 57.542969 147.261719 59.1875 147.644531 C 60.273438 147.898438 61.128906 148.625 61.722656 149.804688 C 62.359375 151.058594 62.664062 152.804688 62.664062 154.824219 C 62.664062 158.28125 61.765625 162.542969 60.074219 166.507812 C 60.015625 169.625 61.5 172.871094 63.046875 176.304688 C 64.722656 180.019531 66.4375 183.816406 66.4375 187.765625 Z M 54.828125 163.769531 C 54.828125 163.671875 54.792969 163.589844 54.722656 163.523438 C 54.65625 163.457031 54.574219 163.421875 54.476562 163.421875 C 54.136719 163.429688 53.929688 163.441406 53.929688 163.441406 C 53.835938 163.449219 53.757812 163.488281 53.691406 163.558594 C 53.628906 163.632812 53.601562 163.714844 53.609375 163.808594 C 53.613281 163.90625 53.652344 163.984375 53.726562 164.046875 C 53.796875 164.109375 53.878906 164.140625 53.976562 164.132812 C 53.980469 164.132812 54.171875 164.121094 54.488281 164.117188 C 54.582031 164.113281 54.660156 164.078125 54.726562 164.011719 C 54.792969 163.945312 54.828125 163.863281 54.828125 163.769531 Z M 47.804688 131.984375 C 49.792969 129.902344 51.652344 127.707031 53.378906 125.402344 C 53.792969 124.84375 54.277344 124.351562 54.835938 123.933594 C 56.179688 122.910156 57.59375 121.808594 58.914062 120.675781 C 59.183594 119.371094 59.109375 118.085938 58.703125 116.820312 C 58.644531 116.628906 58.519531 116.523438 58.324219 116.503906 C 58.132812 116.476562 57.988281 116.542969 57.886719 116.710938 C 56.257812 119.351562 54.269531 121.875 51.015625 125.425781 C 50.398438 126.09375 49.914062 126.855469 49.570312 127.699219 Z M 39.796875 173.324219 C 39.796875 173.242188 39.769531 173.171875 39.71875 173.109375 C 39.523438 172.867188 39.363281 172.609375 39.234375 172.328125 C 39.195312 172.242188 39.128906 172.183594 39.039062 172.148438 C 38.949219 172.117188 38.859375 172.121094 38.773438 172.160156 C 38.6875 172.203125 38.628906 172.265625 38.59375 172.355469 C 38.5625 172.445312 38.566406 172.535156 38.605469 172.621094 C 38.757812 172.953125 38.949219 173.261719 39.179688 173.542969 C 39.28125 173.671875 39.410156 173.707031 39.5625 173.652344 C 39.71875 173.597656 39.796875 173.492188 39.796875 173.328125 Z M 48.917969 166.59375 C 49.296875 168.898438 49.390625 171.210938 49.203125 173.539062 C 50.226562 175.714844 52.679688 178.550781 55.519531 181.828125 C 58.566406 185.34375 62.015625 189.328125 64.375 193.375 C 67.355469 187.535156 64.847656 181.972656 62.417969 176.585938 C 60.824219 173.054688 59.335938 169.710938 59.382812 166.425781 C 59.375 165.511719 58.804688 164.867188 57.558594 164.480469 C 57.464844 164.457031 57.394531 164.398438 57.347656 164.3125 C 57.304688 164.226562 57.292969 164.140625 57.324219 164.046875 C 57.351562 163.953125 57.410156 163.886719 57.496094 163.839844 C 57.582031 163.796875 57.671875 163.789062 57.765625 163.820312 C 58.921875 164.179688 59.519531 164.742188 59.8125 165.316406 C 62.105469 159.460938 62.664062 153.191406 61.105469 150.113281 C 60.605469 149.128906 59.910156 148.523438 59.03125 148.316406 C 58.007812 148.078125 57.339844 149.566406 56.152344 152.441406 C 55.132812 154.898438 53.742188 158.269531 51.3125 161.710938 C 49.496094 164.277344 48.996094 166.246094 48.917969 166.59375 Z M 32.898438 170.929688 C 32.894531 170.96875 32.898438 171.007812 32.902344 171.046875 C 33.09375 173.121094 42.761719 190.855469 46.890625 198.429688 C 48.15625 200.746094 48.988281 202.28125 49.144531 202.605469 C 49.71875 203.816406 49.738281 206.535156 49.761719 209.984375 C 49.769531 210.863281 49.773438 211.785156 49.789062 212.738281 C 49.804688 213.664062 50.738281 214.375 51.519531 214.808594 C 55.242188 216.882812 63.101562 217.269531 66.019531 215.519531 C 66.761719 215.078125 67.128906 214.53125 67.121094 213.882812 C 67.117188 213.570312 67.113281 213.222656 67.117188 212.847656 C 67.191406 210.503906 67 208.183594 66.535156 205.882812 C 66.359375 205.050781 66.332031 204.210938 66.457031 203.363281 C 67.375 196.558594 60.507812 188.640625 54.996094 182.277344 C 52.085938 178.917969 49.574219 176.019531 48.539062 173.738281 C 48.511719 173.683594 48.503906 173.625 48.507812 173.566406 C 49.035156 167.441406 47.316406 162.375 46.175781 159.023438 C 45.699219 157.613281 45.320312 156.496094 45.257812 155.726562 C 45.25 155.601562 45.292969 155.503906 45.390625 155.425781 C 47.398438 153.867188 49.109375 150.183594 50.238281 147.746094 C 50.578125 147.015625 50.871094 146.382812 51.128906 145.898438 C 51.175781 145.808594 51.246094 145.75 51.34375 145.726562 C 56.664062 144.3125 58.960938 139.074219 59.207031 135.898438 C 59.230469 135.660156 59.136719 135.480469 58.925781 135.363281 C 58.714844 135.238281 58.507812 135.242188 58.304688 135.378906 C 55.71875 137.097656 51.652344 139.179688 48.40625 139.964844 C 47.800781 140.113281 47.324219 140.445312 46.972656 140.960938 C 46.144531 142.152344 44.746094 143.839844 43.261719 145.625 C 41.183594 148.125 38.855469 150.925781 38.125 152.398438 C 37.988281 152.664062 37.898438 152.945312 37.855469 153.238281 C 37.632812 154.75 38.113281 157.734375 38.542969 160.394531 C 38.957031 162.984375 39.351562 165.425781 39.171875 166.703125 L 39.109375 167.144531 C 39.023438 167.785156 38.9375 168.402344 38.878906 168.988281 C 38.871094 169.082031 38.828125 169.160156 38.757812 169.21875 C 38.683594 169.28125 38.597656 169.304688 38.503906 169.296875 C 38.410156 169.285156 38.332031 169.246094 38.269531 169.171875 C 38.210938 169.097656 38.183594 169.015625 38.191406 168.921875 C 38.25 168.324219 38.335938 167.703125 38.425781 167.046875 L 38.484375 166.609375 C 38.648438 165.4375 38.265625 163.039062 37.859375 160.503906 C 37.570312 158.710938 37.273438 156.882812 37.160156 155.367188 C 35.035156 162.230469 32.898438 169.355469 32.898438 170.929688 Z M 51.996094 137.996094 C 53.339844 136.601562 54.183594 134.847656 54.925781 133.300781 C 55.378906 132.269531 55.925781 131.289062 56.5625 130.363281 C 56.605469 130.304688 56.664062 130.265625 56.730469 130.242188 C 62.03125 128.460938 65.050781 122.066406 64.5625 117.21875 C 64.539062 116.972656 64.40625 116.816406 64.167969 116.753906 C 63.933594 116.679688 63.742188 116.742188 63.597656 116.941406 C 61.609375 119.503906 58.265625 122.191406 55.253906 124.488281 C 54.75 124.867188 54.308594 125.308594 53.933594 125.816406 C 50.828125 130.042969 46.703125 134.207031 43.453125 137.363281 C 42.617188 138.175781 42.050781 139.144531 41.75 140.273438 C 41.15625 142.476562 40.039062 146.109375 38.800781 150.082031 C 39.855469 148.640625 41.304688 146.898438 42.726562 145.1875 C 44.199219 143.414062 45.59375 141.734375 46.402344 140.570312 C 46.851562 139.910156 47.46875 139.488281 48.246094 139.296875 C 49.53125 138.96875 50.78125 138.535156 51.996094 137.996094 Z M 51.996094 137.996094 " fill-opacity="1" fill-rule="evenodd"/></g><g clip-path="url(#d0d65394d4)"><path fill="#f6cf94" d="M 311.773438 187.765625 C 311.769531 190.019531 312.320312 192.125 313.429688 194.089844 C 311.6875 197.253906 310.664062 200.441406 311.066406 203.460938 C 311.175781 204.222656 311.152344 204.980469 310.996094 205.738281 C 310.53125 208.085938 310.332031 210.457031 310.398438 212.847656 C 310.402344 213.21875 310.398438 213.566406 310.394531 213.875 L 310.394531 213.910156 C 310.394531 214.789062 310.890625 215.554688 311.835938 216.117188 C 315.230469 218.148438 323.40625 217.433594 327.027344 215.417969 C 328.375 214.667969 329.097656 213.746094 329.109375 212.753906 C 329.125 211.796875 329.132812 210.871094 329.140625 209.988281 C 329.160156 206.761719 329.179688 203.976562 329.6875 202.902344 C 329.835938 202.597656 330.710938 200.988281 331.925781 198.761719 C 339.128906 185.550781 345.816406 173.058594 345.996094 171.109375 C 346.132812 169.640625 343.964844 162.433594 341.570312 154.71875 C 341.050781 153.035156 340.527344 151.351562 340.003906 149.667969 C 338.792969 145.785156 337.707031 142.246094 337.125 140.089844 C 336.789062 138.839844 336.160156 137.765625 335.234375 136.863281 C 334.136719 135.796875 332.941406 134.617188 331.71875 133.355469 C 331.515625 132.867188 330.207031 129.699219 329.277344 127.4375 C 328.902344 126.515625 328.375 125.6875 327.703125 124.957031 C 324.480469 121.441406 322.515625 118.945312 320.910156 116.34375 C 320.792969 116.15625 320.632812 116.011719 320.429688 115.917969 C 320.226562 115.820312 320.015625 115.789062 319.792969 115.816406 C 319.570312 115.84375 319.375 115.933594 319.203125 116.074219 C 319.03125 116.21875 318.914062 116.398438 318.847656 116.609375 C 318.582031 117.445312 318.449219 118.304688 318.445312 119.179688 C 318.445312 119.441406 318.457031 119.703125 318.484375 119.964844 C 317.273438 118.914062 316.164062 117.761719 315.160156 116.515625 C 315.007812 116.3125 314.8125 116.171875 314.570312 116.09375 C 314.332031 116.015625 314.089844 116.015625 313.847656 116.085938 C 313.605469 116.15625 313.402344 116.285156 313.242188 116.480469 C 313.078125 116.675781 312.984375 116.898438 312.960938 117.148438 C 312.433594 122.210938 315.425781 128.871094 321.15625 130.863281 C 321.738281 131.734375 322.238281 132.644531 322.660156 133.601562 C 323.242188 134.910156 323.941406 136.152344 324.753906 137.332031 C 323.210938 136.585938 321.71875 135.746094 320.285156 134.808594 C 320.082031 134.671875 319.863281 134.601562 319.617188 134.59375 C 319.375 134.589844 319.148438 134.644531 318.941406 134.769531 C 318.730469 134.890625 318.570312 135.058594 318.457031 135.273438 C 318.34375 135.488281 318.292969 135.714844 318.308594 135.957031 C 318.570312 139.300781 320.976562 144.796875 326.539062 146.359375 C 326.769531 146.808594 327.035156 147.386719 327.34375 148.042969 C 328.542969 150.625 330.175781 154.144531 332.242188 155.855469 C 332.03125 156.859375 331.742188 157.84375 331.375 158.804688 C 330.632812 160.875 330.027344 162.988281 329.558594 165.140625 C 329.015625 163.777344 328.320312 162.5 327.460938 161.3125 C 325.078125 157.9375 323.703125 154.605469 322.699219 152.175781 C 321.472656 149.214844 320.667969 147.261719 319.019531 147.644531 C 317.933594 147.898438 317.082031 148.625 316.484375 149.804688 C 315.851562 151.058594 315.542969 152.804688 315.542969 154.824219 C 315.542969 158.28125 316.445312 162.542969 318.136719 166.507812 C 318.195312 169.625 316.710938 172.871094 315.160156 176.304688 C 313.488281 180.019531 311.773438 183.816406 311.773438 187.765625 Z M 323.382812 163.769531 C 323.382812 163.671875 323.417969 163.589844 323.484375 163.523438 C 323.554688 163.457031 323.636719 163.421875 323.734375 163.421875 C 324.070312 163.429688 324.277344 163.441406 324.277344 163.441406 C 324.375 163.449219 324.453125 163.488281 324.515625 163.558594 C 324.578125 163.632812 324.609375 163.714844 324.601562 163.808594 C 324.59375 163.90625 324.554688 163.984375 324.484375 164.046875 C 324.414062 164.109375 324.328125 164.140625 324.234375 164.132812 C 324.230469 164.132812 324.035156 164.121094 323.722656 164.117188 C 323.628906 164.113281 323.546875 164.078125 323.480469 164.011719 C 323.414062 163.945312 323.382812 163.863281 323.382812 163.769531 Z M 330.402344 131.984375 C 328.414062 129.902344 326.558594 127.707031 324.832031 125.402344 C 324.417969 124.84375 323.929688 124.351562 323.371094 123.933594 C 322.027344 122.910156 320.617188 121.808594 319.296875 120.675781 C 319.027344 119.371094 319.097656 118.085938 319.507812 116.820312 C 319.5625 116.628906 319.691406 116.523438 319.886719 116.503906 C 320.078125 116.476562 320.222656 116.542969 320.324219 116.710938 C 321.953125 119.351562 323.941406 121.875 327.191406 125.425781 C 327.8125 126.09375 328.292969 126.855469 328.640625 127.699219 Z M 338.414062 173.324219 C 338.414062 173.242188 338.441406 173.171875 338.492188 173.109375 C 338.683594 172.867188 338.847656 172.609375 338.976562 172.328125 C 339.015625 172.242188 339.082031 172.183594 339.171875 172.148438 C 339.261719 172.117188 339.347656 172.121094 339.4375 172.160156 C 339.523438 172.203125 339.582031 172.265625 339.613281 172.355469 C 339.648438 172.445312 339.644531 172.535156 339.601562 172.621094 C 339.449219 172.953125 339.257812 173.261719 339.03125 173.542969 C 338.925781 173.671875 338.800781 173.707031 338.644531 173.652344 C 338.492188 173.597656 338.414062 173.492188 338.414062 173.328125 Z M 329.289062 166.59375 C 328.914062 168.898438 328.816406 171.210938 329.003906 173.539062 C 327.984375 175.714844 325.527344 178.550781 322.691406 181.828125 C 319.644531 185.34375 316.195312 189.328125 313.832031 193.375 C 310.855469 187.535156 313.363281 181.972656 315.792969 176.585938 C 317.386719 173.054688 318.875 169.710938 318.828125 166.425781 C 318.835938 165.511719 319.402344 164.867188 320.652344 164.480469 C 320.746094 164.457031 320.8125 164.398438 320.859375 164.3125 C 320.90625 164.226562 320.914062 164.140625 320.886719 164.046875 C 320.859375 163.953125 320.800781 163.886719 320.714844 163.839844 C 320.625 163.796875 320.539062 163.789062 320.445312 163.820312 C 319.285156 164.179688 318.691406 164.742188 318.398438 165.316406 C 316.101562 159.460938 315.546875 153.191406 317.101562 150.113281 C 317.601562 149.128906 318.300781 148.523438 319.175781 148.316406 C 320.203125 148.078125 320.871094 149.566406 322.058594 152.441406 C 323.074219 154.898438 324.46875 158.269531 326.898438 161.710938 C 328.710938 164.277344 329.210938 166.246094 329.289062 166.59375 Z M 345.3125 170.929688 C 345.3125 170.96875 345.3125 171.007812 345.308594 171.046875 C 345.117188 173.121094 335.449219 190.855469 331.320312 198.429688 C 330.054688 200.746094 329.21875 202.28125 329.066406 202.605469 C 328.488281 203.816406 328.46875 206.535156 328.449219 209.984375 C 328.441406 210.863281 328.433594 211.785156 328.417969 212.738281 C 328.40625 213.664062 327.472656 214.375 326.691406 214.808594 C 322.96875 216.882812 315.109375 217.269531 312.191406 215.519531 C 311.449219 215.078125 311.082031 214.53125 311.089844 213.882812 C 311.09375 213.570312 311.097656 213.222656 311.09375 212.847656 C 311.019531 210.503906 311.210938 208.183594 311.671875 205.882812 C 311.847656 205.050781 311.875 204.210938 311.753906 203.363281 C 310.835938 196.558594 317.703125 188.640625 323.214844 182.277344 C 326.121094 178.917969 328.632812 176.019531 329.671875 173.738281 C 329.695312 173.683594 329.707031 173.625 329.703125 173.566406 C 329.175781 167.441406 330.890625 162.375 332.03125 159.023438 C 332.511719 157.613281 332.890625 156.496094 332.949219 155.726562 C 332.960938 155.601562 332.914062 155.503906 332.816406 155.425781 C 330.8125 153.867188 329.101562 150.183594 327.96875 147.746094 C 327.632812 147.015625 327.335938 146.382812 327.082031 145.898438 C 327.035156 145.808594 326.960938 145.75 326.863281 145.726562 C 321.542969 144.3125 319.246094 139.074219 319 135.898438 C 318.976562 135.660156 319.070312 135.480469 319.285156 135.363281 C 319.492188 135.238281 319.699219 135.242188 319.902344 135.378906 C 322.492188 137.097656 326.558594 139.179688 329.800781 139.964844 C 330.40625 140.113281 330.886719 140.445312 331.238281 140.960938 C 332.0625 142.152344 333.464844 143.839844 334.949219 145.625 C 337.023438 148.125 339.351562 150.925781 340.082031 152.398438 C 340.222656 152.664062 340.3125 152.945312 340.351562 153.238281 C 340.574219 154.75 340.097656 157.734375 339.667969 160.394531 C 339.253906 162.984375 338.859375 165.425781 339.039062 166.703125 L 339.097656 167.144531 C 339.1875 167.785156 339.273438 168.402344 339.328125 168.988281 C 339.339844 169.082031 339.378906 169.160156 339.453125 169.21875 C 339.527344 169.28125 339.613281 169.304688 339.707031 169.296875 C 339.800781 169.285156 339.878906 169.246094 339.9375 169.171875 C 340 169.097656 340.027344 169.015625 340.019531 168.921875 C 339.960938 168.324219 339.875 167.703125 339.785156 167.046875 L 339.722656 166.609375 C 339.5625 165.4375 339.945312 163.039062 340.351562 160.503906 C 340.640625 158.710938 340.933594 156.882812 341.050781 155.367188 C 343.171875 162.230469 345.3125 169.355469 345.3125 170.929688 Z M 326.214844 137.996094 C 324.871094 136.601562 324.027344 134.847656 323.28125 133.300781 C 322.832031 132.269531 322.285156 131.289062 321.644531 130.363281 C 321.601562 130.304688 321.546875 130.265625 321.480469 130.242188 C 316.179688 128.460938 313.15625 122.066406 313.648438 117.21875 C 313.671875 116.972656 313.800781 116.816406 314.039062 116.753906 C 314.273438 116.679688 314.464844 116.742188 314.613281 116.941406 C 316.597656 119.503906 319.945312 122.191406 322.957031 124.488281 C 323.460938 124.867188 323.898438 125.308594 324.273438 125.816406 C 327.382812 130.042969 331.507812 134.207031 334.757812 137.363281 C 335.589844 138.175781 336.160156 139.144531 336.460938 140.273438 C 337.050781 142.476562 338.171875 146.109375 339.40625 150.082031 C 338.351562 148.640625 336.902344 146.898438 335.484375 145.1875 C 334.007812 143.414062 332.617188 141.734375 331.808594 140.570312 C 331.355469 139.910156 330.742188 139.488281 329.964844 139.296875 C 328.679688 138.96875 327.429688 138.535156 326.214844 137.996094 Z M 326.214844 137.996094 " fill-opacity="1" fill-rule="evenodd"/></g><path stroke-linecap="round" transform="matrix(0.75, 0, 0, 0.75, 16.820859, 234.875521)" fill="none" stroke-linejoin="miter" d="M 0.499271 0.499305 L 73.191984 0.499305 " stroke="#f6cf94" stroke-width="1" stroke-opacity="1" stroke-miterlimit="4"/><path stroke-linecap="round" transform="matrix(0.75, 0, 0, 0.75, 306.123618, 234.500521)" fill="none" stroke-linejoin="miter" d="M 0.501843 0.499305 L 73.189347 0.499305 " stroke="#f6cf94" stroke-width="1" stroke-opacity="1" stroke-miterlimit="4"/><path stroke-linecap="round" transform="matrix(0.75, 0, 0, 0.75, 123.088765, 277.871672)" fill="none" stroke-linejoin="miter" d="M 0.501438 0.499229 L 171.261866 0.499229 " stroke="#f6cf94" stroke-width="1" stroke-opacity="1" stroke-miterlimit="4"/><path stroke-linecap="round" transform="matrix(0.75, 0, 0, 0.75, 159.286664, 285.871652)" fill="none" stroke-linejoin="miter" d="M 0.497989 0.499256 L 74.737577 0.499256 " stroke="#f6cf94" stroke-width="1" stroke-opacity="1" stroke-miterlimit="4"/></svg>